<svg width="100" height="100" viewBox="0 0 100 100" fill="none" xmlns="http://www.w3.org/2000/svg">
<g clip-path="url(#clip0_708_3)">
<rect width="10" height="10" fill="black"/>
<rect width="10" height="10" transform="translate(10)" fill="white"/>
<rect width="10" height="10" transform="translate(20)" fill="black"/>
<rect width="10" height="10" transform="translate(30)" fill="white"/>
<rect width="10" height="10" transform="translate(40)" fill="black"/>
<rect width="10" height="10" transform="translate(50)" fill="white"/>
<rect width="10" height="10" transform="translate(60)" fill="black"/>
<rect width="10" height="10" transform="translate(70)" fill="white"/>
<rect width="10" height="10" transform="translate(80)" fill="black"/>
<rect width="10" height="10" transform="translate(90)" fill="white"/>
<rect width="10" height="10" transform="translate(0 10)" fill="white"/>
<rect width="10" height="10" transform="translate(10 10)" fill="black"/>
<rect width="10" height="10" transform="translate(20 10)" fill="white"/>
<rect width="10" height="10" transform="translate(30 10)" fill="black"/>
<rect width="10" height="10" transform="translate(40 10)" fill="white"/>
<rect width="10" height="10" transform="translate(50 10)" fill="black"/>
<rect width="10" height="10" transform="translate(60 10)" fill="white"/>
<rect width="10" height="10" transform="translate(70 10)" fill="black"/>
<rect width="10" height="10" transform="translate(80 10)" fill="white"/>
<rect width="10" height="10" transform="translate(90 10)" fill="black"/>
<rect width="10" height="10" transform="translate(0 20)" fill="black"/>
<rect width="10" height="10" transform="translate(10 20)" fill="white"/>
<rect width="10" height="10" transform="translate(20 20)" fill="black"/>
<rect width="10" height="10" transform="translate(30 20)" fill="white"/>
<rect width="10" height="10" transform="translate(40 20)" fill="black"/>
<rect width="10" height="10" transform="translate(50 20)" fill="white"/>
<rect width="10" height="10" transform="translate(60 20)" fill="black"/>
<rect width="10" height="10" transform="translate(70 20)" fill="white"/>
<rect width="10" height="10" transform="translate(80 20)" fill="black"/>
<rect width="10" height="10" transform="translate(90 20)" fill="white"/>
<rect width="10" height="10" transform="translate(0 30)" fill="white"/>
<rect width="10" height="10" transform="translate(10 30)" fill="black"/>
<rect width="10" height="10" transform="translate(20 30)" fill="white"/>
<rect width="10" height="10" transform="translate(30 30)" fill="black"/>
<rect width="10" height="10" transform="translate(40 30)" fill="white"/>
<rect width="10" height="10" transform="translate(50 30)" fill="black"/>
<rect width="10" height="10" transform="translate(60 30)" fill="white"/>
<rect width="10" height="10" transform="translate(70 30)" fill="black"/>
<rect width="10" height="10" transform="translate(80 30)" fill="white"/>
<rect width="10" height="10" transform="translate(90 30)" fill="black"/>
<rect width="10" height="10" transform="translate(0 40)" fill="black"/>
<rect width="10" height="10" transform="translate(10 40)" fill="white"/>
<rect width="10" height="10" transform="translate(20 40)" fill="black"/>
<rect width="10" height="10" transform="translate(30 40)" fill="white"/>
<rect width="10" height="10" transform="translate(40 40)" fill="black"/>
<rect width="10" height="10" transform="translate(50 40)" fill="white"/>
<rect width="10" height="10" transform="translate(60 40)" fill="black"/>
<rect width="10" height="10" transform="translate(70 40)" fill="white"/>
<rect width="10" height="10" transform="translate(80 40)" fill="black"/>
<rect width="10" height="10" transform="translate(90 40)" fill="white"/>
<rect width="10" height="10" transform="translate(0 50)" fill="white"/>
<rect width="10" height="10" transform="translate(10 50)" fill="black"/>
<rect width="10" height="10" transform="translate(20 50)" fill="white"/>
<rect width="10" height="10" transform="translate(30 50)" fill="black"/>
<rect width="10" height="10" transform="translate(40 50)" fill="white"/>
<rect width="10" height="10" transform="translate(50 50)" fill="black"/>
<rect width="10" height="10" transform="translate(60 50)" fill="white"/>
<rect width="10" height="10" transform="translate(70 50)" fill="black"/>
<rect width="10" height="10" transform="translate(80 50)" fill="white"/>
<rect width="10" height="10" transform="translate(90 50)" fill="black"/>
<rect width="10" height="10" transform="translate(0 60)" fill="black"/>
<rect width="10" height="10" transform="translate(10 60)" fill="white"/>
<rect width="10" height="10" transform="translate(20 60)" fill="black"/>
<rect width="10" height="10" transform="translate(30 60)" fill="white"/>
<rect width="10" height="10" transform="translate(40 60)" fill="black"/>
<rect width="10" height="10" transform="translate(50 60)" fill="white"/>
<rect width="10" height="10" transform="translate(60 60)" fill="black"/>
<rect width="10" height="10" transform="translate(70 60)" fill="white"/>
<rect width="10" height="10" transform="translate(80 60)" fill="black"/>
<rect width="10" height="10" transform="translate(90 60)" fill="white"/>
<rect width="10" height="10" transform="translate(0 70)" fill="white"/>
<rect width="10" height="10" transform="translate(10 70)" fill="black"/>
<rect width="10" height="10" transform="translate(20 70)" fill="white"/>
<rect width="10" height="10" transform="translate(30 70)" fill="black"/>
<rect width="10" height="10" transform="translate(40 70)" fill="white"/>
<rect width="10" height="10" transform="translate(50 70)" fill="black"/>
<rect width="10" height="10" transform="translate(60 70)" fill="white"/>
<rect width="10" height="10" transform="translate(70 70)" fill="black"/>
<rect width="10" height="10" transform="translate(80 70)" fill="white"/>
<rect width="10" height="10" transform="translate(90 70)" fill="black"/>
<rect width="10" height="10" transform="translate(0 80)" fill="black"/>
<rect width="10" height="10" transform="translate(10 80)" fill="white"/>
<rect width="10" height="10" transform="translate(20 80)" fill="black"/>
<rect width="10" height="10" transform="translate(30 80)" fill="white"/>
<rect width="10" height="10" transform="translate(40 80)" fill="black"/>
<rect width="10" height="10" transform="translate(50 80)" fill="white"/>
<rect width="10" height="10" transform="translate(60 80)" fill="black"/>
<rect width="10" height="10" transform="translate(70 80)" fill="white"/>
<rect width="10" height="10" transform="translate(80 80)" fill="black"/>
<rect width="10" height="10" transform="translate(90 80)" fill="white"/>
<rect width="10" height="10" transform="translate(0 90)" fill="white"/>
<rect width="10" height="10" transform="translate(10 90)" fill="black"/>
<rect width="10" height="10" transform="translate(20 90)" fill="white"/>
<rect width="10" height="10" transform="translate(30 90)" fill="black"/>
<rect width="10" height="10" transform="translate(40 90)" fill="white"/>
<rect width="10" height="10" transform="translate(50 90)" fill="black"/>
<rect width="10" height="10" transform="translate(60 90)" fill="white"/>
<rect width="10" height="10" transform="translate(70 90)" fill="black"/>
<rect width="10" height="10" transform="translate(80 90)" fill="white"/>
<rect width="10" height="10" transform="translate(90 90)" fill="black"/>
</g>
<defs>
<clipPath id="clip0_708_3">
<rect width="100" height="100" fill="white"/>
</clipPath>
</defs>
</svg>
